<svg xmlns:xlink="http://www.w3.org/1999/xlink" xmlns="http://www.w3.org/2000/svg" width="47" height="39" viewBox="0 0 47 39" fill="none"><path fill-rule="evenodd" clip-rule="evenodd" d="M20.4645 14.4084C20.6951 13.5048 19.532 12.9237 18.9481 13.651L12.5008 21.6792C12.0452 22.2469 12.4491 23.0895 13.1772 23.0895H16.3303L15.3215 27.5295C15.1177 28.425 16.2638 28.9812 16.8411 28.2672L23.5456 19.9783C24.041 19.3655 23.5285 18.4631 22.7486 18.5743L19.2741 19.0707L20.4645 14.4084ZM13.7796 21.9333L19.0137 15.4155L18.0465 19.2033C17.8935 19.802 18.398 20.3639 19.0093 20.2763L22.1838 19.8231L16.7246 26.5727L17.5383 22.9927C17.5672 22.8657 17.5671 22.7338 17.538 22.6069C17.5089 22.4799 17.4516 22.3612 17.3704 22.2594C17.2891 22.1576 17.186 22.0754 17.0686 22.019C16.9513 21.9625 16.8227 21.9332 16.6925 21.9333H13.7796Z" fill="#FF5900"></path><path fill-rule="evenodd" clip-rule="evenodd" d="M13.7305 9.93713V8.05823C13.7305 7.82824 13.6391 7.60766 13.4765 7.44503C13.3138 7.2824 13.0933 7.19104 12.8633 7.19104H6.9375C6.70751 7.19104 6.48694 7.2824 6.32431 7.44503C6.16168 7.60766 6.07031 7.82824 6.07031 8.05823V9.93713H3.17969C2.9497 9.93713 2.72912 10.0285 2.56649 10.1911C2.40386 10.3538 2.3125 10.5743 2.3125 10.8043V14.4176C2.3125 14.6476 2.40386 14.8682 2.56649 15.0308C2.72912 15.1934 2.9497 15.2848 3.17969 15.2848H3.90234V31.1832C3.90234 31.4132 3.99371 31.6338 4.15634 31.7964C4.31897 31.9591 4.53954 32.0504 4.76953 32.0504H32.375C32.605 32.0504 32.8256 31.9591 32.9882 31.7964C33.1508 31.6338 33.2422 31.4132 33.2422 31.1832V15.2848H33.6758C33.9058 15.2848 34.1263 15.1934 34.289 15.0308C34.4516 14.8682 34.543 14.6476 34.543 14.4176V10.8043C34.543 10.5743 34.4516 10.3538 34.289 10.1911C34.1263 10.0285 33.9058 9.93713 33.6758 9.93713H30.7852V8.05823C30.7852 7.82824 30.6938 7.60766 30.5312 7.44503C30.3685 7.2824 30.148 7.19104 29.918 7.19104H24.1367C23.9067 7.19104 23.6862 7.2824 23.5235 7.44503C23.3609 7.60766 23.2695 7.82824 23.2695 8.05823V9.93713H13.7305ZM7.22656 8.34729V9.93713H12.5742V8.34729H7.22656ZM5.05859 30.8942V15.2848H6.64844C6.80177 15.2848 6.94881 15.2239 7.05723 15.1155C7.16565 15.007 7.22656 14.86 7.22656 14.7067C7.22656 14.5533 7.16565 14.4063 7.05723 14.2979C6.94881 14.1894 6.80177 14.1285 6.64844 14.1285H3.46875V11.0934H33.3867V14.1285H30.207C30.0537 14.1285 29.9067 14.1894 29.7982 14.2979C29.6898 14.4063 29.6289 14.5533 29.6289 14.7067C29.6289 14.86 29.6898 15.007 29.7982 15.1155C29.9067 15.2239 30.0537 15.2848 30.207 15.2848H32.0859V30.8942H5.05859ZM24.4258 9.93713H29.6289V8.34729H24.4258V9.93713Z" fill="#FF5900"></path><circle cx="27.5" cy="19.4999" r="19.5" fill="#FE6F00" fill-opacity="0.16"></circle></svg>