<svg xmlns:xlink="http://www.w3.org/1999/xlink" xmlns="http://www.w3.org/2000/svg" width="47" height="44" viewBox="0 0 47 44" fill="none"><path d="M7.1459 16.391C7.14133 14.3028 8.8082 12.6286 10.8964 12.624L15.4903 12.614C18.4834 12.6306 21.0405 14.8524 21.4647 17.8213C26.3138 17.7875 34.2721 17.7932 39.1909 17.7824C39.3301 17.7821 39.4927 17.8514 39.609 17.9671L42.1206 20.6067L42.9112 21.4402C43.1205 21.6486 43.1213 22.0198 42.913 22.2291C42.913 22.2291 40.4361 24.8563 39.6259 25.7166C39.6028 25.7398 39.4871 25.9025 39.2087 25.9031L37.5846 25.9067C37.2598 25.9074 37.004 25.6527 37.0033 25.3279L37.0028 25.0959C37.0019 24.7246 36.7229 24.4468 36.3517 24.4476C35.9804 24.4485 35.7026 24.7275 35.7034 25.0987L35.704 25.3307C35.7047 25.6556 35.45 25.9113 35.1252 25.9121L33.2226 25.9162C32.8978 25.9169 32.642 25.6623 32.6413 25.3375L32.6408 25.1054C32.64 24.7342 32.361 24.4564 31.9897 24.4572C31.6185 24.458 31.3407 24.7371 31.3415 25.1083L31.342 25.3403C31.3427 25.6651 31.0881 25.9209 30.7632 25.9216L28.8607 25.9258C28.5358 25.9265 28.2801 25.6718 28.2794 25.347L28.2788 25.115C28.278 24.7438 27.999 24.466 27.6278 24.4668C27.2565 24.4676 26.9787 24.7466 26.9795 25.1178L26.98 25.3499C26.9808 25.6747 26.7261 25.9305 26.4013 25.9312L21.3897 25.9422C21.0018 28.9361 18.4312 31.1459 15.4382 31.1757L10.8443 31.1857C8.77934 31.2135 7.05883 29.5931 7.05426 27.5049C7.14625 27.1335 7.1459 16.391 7.1459 16.391ZM21.5368 18.958L21.5495 24.7585L23.9161 24.7533L23.9034 18.9529L21.5368 18.958ZM25.0635 18.9503L25.0667 20.4352L40.38 20.4017L38.9846 18.9198L25.0635 18.9503ZM25.9346 24.7257C26.0721 23.9365 26.7436 23.3086 27.5787 23.2604C28.0175 23.2261 28.4533 23.3564 28.8013 23.6259C29.1493 23.8953 29.3845 24.2846 29.4613 24.718L30.2734 24.7394C30.4339 23.8806 31.1752 23.3221 31.9639 23.274C32.8687 23.2488 33.6358 23.8735 33.8001 24.7317L34.5889 24.7299C34.7495 23.8711 35.5138 23.243 36.3723 23.2643C37.2308 23.2856 37.9514 23.9105 38.1156 24.7222L38.9509 24.7204L41.6824 21.8373L41.4266 21.5827L25.0461 21.6186L25.053 24.774L25.9346 24.7257ZM10.9344 29.979L15.5284 29.969C18.2198 29.9631 20.396 27.7773 20.3901 25.0859L20.376 18.6358C20.3701 15.9443 18.1843 13.7682 15.4929 13.7741L10.8989 13.7841C9.46039 13.7873 8.30284 14.9499 8.306 16.3884L8.33011 27.3861C8.33326 28.8246 9.4959 29.9822 10.9344 29.979Z" fill="#FF5900"></path><path d="M9.88982 19.1228C9.88789 18.2412 10.6287 17.4971 11.5104 17.4951L12.4849 17.493C13.3665 17.4911 14.1106 18.2319 14.1126 19.1136L14.1247 24.6356C14.1266 25.5173 13.3858 26.2614 12.5041 26.2633L11.5296 26.2655C10.648 26.2674 9.90386 25.5266 9.90193 24.6449C9.87145 21.3271 9.89705 22.4175 9.88982 19.1228ZM11.5271 25.1054L12.5016 25.1032C12.78 25.1026 12.9883 24.8933 12.9646 24.6382L12.9525 19.1161C12.9519 18.8377 12.7426 18.6293 12.4874 18.6531L11.5129 18.6552C11.2345 18.6558 11.0262 18.8651 11.0499 19.1203L11.062 24.6423C11.0394 24.8976 11.2487 25.106 11.5271 25.1054Z" fill="#FF5900"></path><circle cx="27.5" cy="21.0852" r="19.5" fill="#FE6F00" fill-opacity="0.16"></circle></svg>