<svg xmlns:xlink="http://www.w3.org/1999/xlink" xmlns="http://www.w3.org/2000/svg" width="47" height="40" viewBox="0 0 47 40" fill="none"><g clip-path="url(#clip0_2134_349)" fill="#002235"><path d="M20.0347 34.1161C20.0639 34.3115 20.1379 34.4976 20.2509 34.6597C20.3639 34.8218 20.5129 34.9557 20.6861 35.0508C20.8593 35.1459 21.0522 35.1998 21.2496 35.2082C21.4471 35.2165 21.6438 35.1792 21.8244 35.099L27.2434 32.7052C27.3729 32.6482 27.4763 32.5447 27.5334 32.4152C27.5904 32.2857 27.5969 32.1395 27.5515 32.0055L24.8323 23.9262C24.3971 22.6514 23.0999 21.8827 21.7728 22.113L20.9229 22.2655C19.4675 22.5194 18.484 23.8934 18.7135 25.3533L20.0347 34.1161ZM21.3672 34.0621C21.346 34.0721 21.3227 34.0768 21.2993 34.0758C21.2759 34.0748 21.2531 34.0681 21.2329 34.0564C21.2117 34.0452 21.1936 34.0291 21.18 34.0094C21.1664 33.9897 21.1577 33.9671 21.1548 33.9433L19.83 25.1878C19.8028 24.9993 19.8093 24.8074 19.8495 24.6212L20.8075 25.3782C21.2703 25.7391 21.6154 26.2293 21.799 26.7867L23.8753 32.9573L21.3672 34.0621ZM21.1203 23.3851L21.9699 23.2326C22.0612 23.2164 22.1538 23.2082 22.2466 23.2083C22.5795 23.2092 22.9038 23.3138 23.1745 23.5077C23.4452 23.7015 23.6487 23.9749 23.7568 24.2897L26.3126 31.8815L24.915 32.4985L22.8724 26.429C22.6193 25.6619 22.1442 24.9872 21.5072 24.4904L20.4685 23.6688C20.6615 23.5262 20.8844 23.4292 21.1203 23.3851Z" fill="#FF5900"></path><path d="M1.45252 9.64682L9.91265 12.1397C10.027 12.1735 10.1333 12.2303 10.2249 12.3066L13.2089 14.7928L13.69 15.195L17.5888 35.46C17.686 35.9685 17.8968 36.4485 18.2054 36.8642C18.5141 37.2799 18.9126 37.6205 19.3713 37.8607C19.8299 38.1008 20.3369 38.2342 20.8544 38.251C21.3718 38.2678 21.8864 38.1676 22.3597 37.9578L27.7959 35.5562C28.054 35.862 28.4025 36.0781 28.7911 36.1734C29.1798 36.2687 29.5887 36.2383 29.959 36.0866L32.8264 34.9104C33.7919 34.5147 34.2538 33.4114 33.8586 32.4459L28.6366 19.699L29.0241 19.2514C29.7469 18.4142 29.6559 17.1502 28.8208 16.4251L22.8459 11.2485C22.6468 11.0761 22.4157 10.9447 22.1657 10.8616C21.9158 10.7786 21.6519 10.7456 21.3893 10.7646C21.1265 10.7836 20.8701 10.8542 20.6347 10.9723C20.3992 11.0904 20.1893 11.2537 20.017 11.4529L19.0507 12.5707L16.879 10.7612H16.8756L12.8531 7.48933C12.6469 7.32127 12.4092 7.19621 12.1539 7.12152L2.98938 4.42054C1.92816 4.10876 0.814755 4.71559 0.501848 5.77661L0.0961893 7.15399C0.0212474 7.40673 -0.00310252 7.67177 0.024534 7.93393C0.0521704 8.1961 0.13125 8.45023 0.257245 8.68179C0.383241 8.91335 0.553676 9.11778 0.758791 9.28337C0.963906 9.44897 1.19961 9.57248 1.45252 9.64682ZM19.5439 13.7349L20.8745 12.1962C21.0258 12.0213 21.2403 11.9137 21.4709 11.8969C21.7014 11.8803 21.9294 11.956 22.1042 12.1073L28.079 17.2817C28.4421 17.5968 28.4815 18.1461 28.1675 18.51L27.5523 19.2214C27.4836 19.3005 27.4383 19.3972 27.4212 19.5006C27.4042 19.6041 27.4162 19.7102 27.4558 19.8072L32.8102 32.8726C32.9684 33.2587 32.7835 33.7001 32.3974 33.8583L29.529 35.0339C29.3433 35.11 29.135 35.1091 28.9499 35.0316C28.7649 34.9539 28.6184 34.8059 28.5425 34.6202C28.5138 34.5501 28.4714 34.4864 28.4177 34.433C28.3641 34.3795 28.3002 34.3374 28.2299 34.309C28.1597 34.2806 28.0845 34.2666 28.0088 34.2678C27.9331 34.269 27.8584 34.2854 27.7891 34.316L21.9019 36.917C21.5844 37.0572 21.2394 37.124 20.8925 37.1125C20.5456 37.1009 20.2058 37.0112 19.8984 36.8502C19.5909 36.6891 19.3237 36.4608 19.1167 36.1822C18.9097 35.9037 18.7681 35.582 18.7026 35.2411L14.7657 14.778C14.7408 14.6496 14.6724 14.5337 14.572 14.4499L14.3941 14.3015L16.5646 11.9742L18.7537 13.7974C18.8677 13.8921 19.0143 13.9384 19.162 13.9263C19.3097 13.9143 19.4468 13.8448 19.5439 13.7328V13.7349ZM1.18277 7.47586L1.58737 6.09741C1.61965 5.98757 1.67327 5.88516 1.74517 5.79605C1.81706 5.70694 1.90582 5.63288 2.00636 5.57811C2.1069 5.52333 2.21726 5.48891 2.33111 5.47682C2.44497 5.46473 2.56009 5.47521 2.66989 5.50765L11.8287 8.20385C11.9395 8.23641 12.0428 8.29071 12.1324 8.36359L15.688 11.253L13.5227 13.5759L10.95 11.4314C10.74 11.2558 10.4961 11.1254 10.2335 11.0483L1.77194 8.55726C1.31057 8.42115 1.04713 7.93715 1.18277 7.47586Z" fill="#FF5900"></path><path d="M3.96694 23.8105C4.49096 23.8223 5.01194 23.7278 5.49843 23.5327C5.98491 23.3375 6.4268 23.0458 6.79742 22.6752C7.16804 22.3045 7.45971 21.8626 7.65481 21.3761C7.84991 20.8896 7.9444 20.3687 7.93256 19.8446C7.93256 18.0385 5.73776 14.777 4.82274 13.7215C4.71343 13.6037 4.58101 13.5098 4.43376 13.4456C4.2865 13.3814 4.12758 13.3483 3.96694 13.3483C3.80624 13.3482 3.64726 13.3813 3.49995 13.4456C3.35263 13.5098 3.22016 13.6037 3.11081 13.7215C2.19592 14.777 0.000984004 18.0385 0.000984004 19.8446C-0.0228509 20.9038 0.387189 21.9264 1.13616 22.6754C1.88514 23.4243 2.90778 23.8344 3.96694 23.8105ZM3.96694 14.4625C4.96615 15.615 6.79951 18.5331 6.79951 19.8446C6.8125 20.2201 6.74812 20.5943 6.61037 20.9438C6.47262 21.2934 6.26444 21.6109 5.99878 21.8766C5.73312 22.1422 5.41566 22.3504 5.06612 22.4882C4.71658 22.626 4.34243 22.6904 3.96694 22.6775C3.59143 22.6905 3.21725 22.6261 2.86768 22.4883C2.51811 22.3505 2.20061 22.1423 1.93492 21.8767C1.66923 21.611 1.46104 21.2935 1.32327 20.9439C1.1855 20.5943 1.12111 20.2202 1.1341 19.8446C1.1341 18.5336 2.96793 15.6155 3.96694 14.4625ZM16.2438 14.9049C16.1716 14.9233 16.1037 14.9558 16.044 15.0005C15.9843 15.0452 15.934 15.1012 15.896 15.1653C15.858 15.2295 15.8331 15.3005 15.8226 15.3743C15.8121 15.4482 15.8163 15.5233 15.8349 15.5955L16.1181 16.7049C16.1554 16.8504 16.2489 16.9751 16.3781 17.0517C16.5073 17.1283 16.6616 17.1505 16.8071 17.1135C17.1103 17.0362 17.2934 16.7275 17.2161 16.4243L16.9329 15.3146C16.9146 15.2425 16.8822 15.1746 16.8377 15.115C16.7931 15.0553 16.7373 15.005 16.6733 14.967C16.6093 14.9289 16.5384 14.9038 16.4647 14.8932C16.3911 14.8825 16.316 14.8866 16.2438 14.9049ZM16.7288 18.5588L17.5318 21.958C17.5664 22.1042 17.6576 22.2306 17.7854 22.3096C17.9132 22.3885 18.0671 22.4135 18.2133 22.379C18.3593 22.3446 18.4858 22.2536 18.5649 22.1262C18.644 21.9987 18.6693 21.845 18.6353 21.6989L17.8326 18.2997C17.8097 18.2029 17.7617 18.1138 17.6934 18.0414C17.6252 17.9689 17.5391 17.9158 17.4438 17.8871C17.3485 17.8585 17.2473 17.8555 17.1504 17.8783C17.0536 17.9012 16.9644 17.9491 16.892 18.0173C16.8196 18.0855 16.7664 18.1716 16.7377 18.267C16.7091 18.3623 16.706 18.4635 16.7288 18.5603V18.5588Z" fill="#FF5900"></path></g><circle cx="27.5" cy="19.9999" r="19.5" fill="#FE6F00" fill-opacity="0.16"></circle><defs><clipPath id="clip0_2134_349"><rect width="34" height="34" fill="white" transform="translate(0 4.33167)"></rect></clipPath></defs></svg>