<svg xmlns:xlink="http://www.w3.org/1999/xlink" xmlns="http://www.w3.org/2000/svg" width="47" height="40" viewBox="0 0 47 40" fill="none"><g clip-path="url(#clip0_2134_341)" fill="#002235"><path d="M2.18512e-05 23.486V27.8695C2.18512e-05 28.7246 0.695654 29.4203 1.5508 29.4203H4.24943C4.30041 31.8779 6.314 33.8618 8.78366 33.8618C11.2532 33.8618 13.2668 31.8779 13.3178 29.4203H26.374C26.4249 31.8779 28.4385 33.8618 30.9081 33.8618C33.3778 33.8618 35.3913 31.8779 35.4423 29.4203H39.9027C40.7579 29.4203 41.4535 28.7246 41.4535 27.8695V20.6932C41.4535 19.5871 41.134 18.5129 40.5296 17.5865L36.3714 11.2118C35.7051 10.1902 34.5816 9.57841 33.363 9.57099V8.80247C33.363 7.85545 32.5925 7.08496 31.6455 7.08496C30.6984 7.08496 29.928 7.85545 29.928 8.80247V9.57029C29.3466 9.57029 28.8095 9.76338 28.3772 10.0886V8.84659C28.3772 8.56112 28.1458 8.32967 27.8603 8.32967H26.3241C25.5084 8.32967 24.8285 8.96741 24.7764 9.7815L24.0998 20.3638H23.521C23.214 18.3603 21.4906 16.7639 19.2107 16.8255L3.24022 8.72958C2.76974 8.49112 2.2205 8.51343 1.77071 8.78954C1.32114 9.06567 1.05277 9.5455 1.05277 10.0731C1.05277 10.545 1.26924 10.9799 1.63765 11.2639V14.2349C0.698495 14.467 4.08533e-05 15.3168 4.08533e-05 16.3267C4.08533e-05 17.5147 0.966542 18.4813 2.15458 18.4813C3.34261 18.4813 4.30911 17.5147 4.30911 16.3267H3.27526C3.27526 16.9447 2.77256 17.4475 2.15458 17.4475C1.53659 17.4475 1.03389 16.9447 1.03389 16.3267C1.03389 15.7088 1.53659 15.206 2.15458 15.206C2.44009 15.206 2.6715 14.9746 2.6715 14.6891V11.9218L15.3645 19.8856C15.3212 20.0417 15.2859 20.201 15.2609 20.3638H8.70094L0.361664 22.9929C-0.00937671 23.1486 2.18512e-05 23.486 2.18512e-05 23.486ZM30.9619 8.80247C30.9619 8.42548 31.2685 8.11881 31.6455 8.11881C32.0225 8.11881 32.3291 8.4255 32.3291 8.80247V9.57029H30.9619V8.80247ZM25.8082 9.8475C25.8256 9.57612 26.0522 9.36354 26.3241 9.36354H27.3434V22.9691H24.9693L25.8082 9.8475ZM19.391 17.8548C20.9072 17.8548 22.1762 18.9335 22.471 20.3638H16.311C16.6057 18.9335 17.8747 17.8548 19.391 17.8548ZM2.30802 10.4733C2.16939 10.3863 2.08661 10.2367 2.08661 10.0731C2.08661 9.83457 2.24411 9.7121 2.31186 9.6705C2.50906 9.55695 2.69652 9.61306 2.77275 9.65167L17.6593 17.1982C16.8647 17.5617 16.2034 18.1667 15.7695 18.9192L2.30802 10.4733ZM8.86725 21.3976H24.0337L23.9332 22.9691H3.87859L8.86725 21.3976ZM8.78366 32.8279C6.85224 32.8279 5.28086 31.2567 5.28086 29.3252C5.28086 27.3938 6.85224 25.8226 8.78366 25.8226C10.7151 25.8226 12.2863 27.3938 12.2863 29.3252C12.2863 31.2567 10.7151 32.8279 8.78366 32.8279ZM30.9081 32.8279C28.9767 32.8279 27.4053 31.2567 27.4053 29.3252C27.4053 27.3938 28.9767 25.8226 30.9081 25.8226C32.8396 25.8226 34.4108 27.3938 34.4108 29.3252C34.4108 31.2567 32.8396 32.8279 30.9081 32.8279ZM40.4196 27.8695C40.4196 28.1546 40.1878 28.3865 39.9027 28.3865H35.3464C34.9128 26.334 33.0878 24.7887 30.9081 24.7887C28.7285 24.7887 26.9035 26.334 26.4698 28.3865H13.2219C12.7883 26.334 10.9633 24.7887 8.78366 24.7887C6.60397 24.7887 4.77893 26.334 4.34528 28.3865H1.5508C1.26578 28.3865 1.03388 28.1546 1.03388 27.8695V24.0029H27.8603C28.1458 24.0029 28.3772 23.7715 28.3772 23.486V12.1549C28.3772 11.2998 29.0729 10.6041 29.928 10.6041H33.3406C34.2173 10.6041 35.0265 11.0425 35.5055 11.7767L39.6638 18.1513C40.1582 18.9093 40.4196 19.7883 40.4196 20.6932V27.8695Z" fill="#FF5900"></path><path d="M8.78412 27.4685C7.76025 27.4685 6.92731 28.3014 6.92731 29.3253C6.92731 30.3491 7.76025 31.1821 8.78412 31.1821C9.80798 31.1821 10.6409 30.3491 10.6409 29.3253C10.6409 28.3014 9.80798 27.4685 8.78412 27.4685ZM8.78412 30.1482C8.3304 30.1482 7.96115 29.7791 7.96115 29.3253C7.96115 28.8715 8.3304 28.5023 8.78412 28.5023C9.23783 28.5023 9.60708 28.8715 9.60708 29.3253C9.60708 29.7791 9.23783 30.1482 8.78412 30.1482Z" fill="#FF5900"></path><path d="M30.9094 27.4685C29.8856 27.4685 29.0526 28.3014 29.0526 29.3253C29.0526 30.3491 29.8856 31.1821 30.9094 31.1821C31.9333 31.1821 32.7662 30.3491 32.7662 29.3253C32.7662 28.3014 31.9333 27.4685 30.9094 27.4685ZM30.9094 30.1482C30.4557 30.1482 30.0865 29.7791 30.0865 29.3253C30.0865 28.8715 30.4557 28.5023 30.9094 28.5023C31.3631 28.5023 31.7324 28.8715 31.7324 29.3253C31.7324 29.7791 31.3631 30.1482 30.9094 30.1482Z" fill="#FF5900"></path><path d="M34.3593 12.8582C34.0719 12.4177 33.5863 12.1548 33.0604 12.1548H30.4447C30.1593 12.1548 29.9279 12.3862 29.9279 12.6717V20.62C29.9279 20.9054 30.1593 21.1369 30.4447 21.1369H38.3518C38.6373 21.1369 38.8687 20.9054 38.8687 20.62V19.9246C38.8687 19.8242 38.8395 19.7261 38.7847 19.6421L34.3593 12.8582ZM37.8348 20.1031H30.9617V13.1887H33.0604C33.2356 13.1887 33.3976 13.2763 33.4934 13.4232L37.8348 20.0783V20.1031Z" fill="#FF5900"></path></g><circle cx="27.5" cy="20.0017" r="19.5" fill="#FE6F00" fill-opacity="0.16"></circle><defs><clipPath id="clip0_2134_341"><rect width="42" height="26.8333" fill="white" transform="translate(0 7.08496)"></rect></clipPath></defs></svg>