<?xml version="1.0" encoding="UTF-8"?>
<svg id="Layer_1" xmlns="http://www.w3.org/2000/svg" xmlns:xlink="http://www.w3.org/1999/xlink" version="1.1" viewBox="0 0 2698.9 2268.1">
  <!-- Generator: Adobe Illustrator 29.8.2, SVG Export Plug-In . SVG Version: 2.1.1 Build 3)  -->
  <defs>
    <style>
      .st0 {
        fill: none;
      }

      .st1 {
        fill: #b5b5b5;
      }

      .st2 {
        fill: #1b69a7;
      }

      .st3 {
        fill: #0b1f3f;
      }

      .st3, .st4 {
        fill-rule: evenodd;
      }

      .st5 {
        fill: #634b3b;
      }

      .st6 {
        fill: #ffd000;
      }

      .st7 {
        fill: #473326;
      }

      .st8 {
        fill: #e5e5e5;
      }

      .st9 {
        isolation: isolate;
      }

      .st4 {
        fill: #c4a10c;
      }

      .st10 {
        fill: #fff;
      }

      .st11 {
        fill: #1b5277;
      }

      .st12 {
        fill: #07202b;
      }

      .st13 {
        fill: #4b96c9;
      }

      .st14 {
        fill: #f7e8df;
      }

      .st15 {
        fill: #191919;
      }

      .st16 {
        clip-path: url(#clippath);
      }

      .st17 {
        fill: #af8569;
      }

      .st18 {
        fill: #f2caaa;
      }
    </style>
    <clipPath id="clippath">
      <path class="st0" d="M1357.2,261.2s266.4,54.9,458.7,119.1c192.3,64.2,439.5,168.6,439.5,168.6l23.4,335.9s22,180.7-16.5,360-174.4,448.4-271.9,552.8c-97.5,104.4-212.9,218.2-332.3,277.1-119.5,58.9-318.6,125.8-318.6,125.8,0,0-248.6-70.9-366.7-153.9s-239-187.4-249.9-204.8-134.6-132.5-190.9-278.4c-56.3-145.9-140.1-535.4-131.8-688,8.3-152.6,37.1-322.6,37.1-322.6,0,0,435.3-203.4,539.7-219.5s380.4-72.3,380.4-72.3l-.2.2Z"/>
    </clipPath>
  </defs>
  <g class="st16">
    <rect class="st6" x="-710.5" y="-271.8" width="4107.7" height="3009.1"/>
  </g>
  <path class="st3" d="M287.4,1029.1h115.5c-1.3-20.7-2.2-41.7-3-63-4.1-140.3,6-291.3,30.6-453,285.3-151.2,593.4-254.4,912.1-305.3,318.7,50.9,626.8,154.1,912.2,305.3,24.5,161.7,34.8,312.8,30.6,453h-63c4.3-138.3-6.1-277.6-25.2-412-268.2-138.4-556.9-233.9-854.6-282.5-297.7,48.7-586.4,144.2-854.5,282.5-19,134.5-29.4,273.8-25.2,412,.7,21.1,1.7,42.1,3.1,63h2120.4c55.2,0,88.3,45.4,73.4,100.7l-134.3,499.2c-14.9,55.3-72.3,100.7-127.7,100.7h-343c-15.2,21.6-31.3,42.5-48.1,63-156,189.8-377.4,331-664.1,423.6-286.5-92.6-507.9-233.9-664-423.6h83.2c155.9,171.3,360.5,283.6,580.8,357.3,220.3-73.7,425-186,580.9-357.3,18.4-20.3,36.1-41.2,53-63H99c-55.2,0-88.3-45.4-73.4-100.7l134.3-499.2c14.9-55.3,72.3-100.7,127.5-100.7h0Z"/>
  <path class="st4" d="M1344.9,2034.1c-186.8-50.2-363-133.6-520.5-246.3,145.8,142.5,327.9,238.7,520.5,304.1,192.7-65.4,374.8-161.6,520.6-304.1-157.4,112.7-333.7,196.1-520.6,246.3h0Z"/>
  <path class="st4" d="M530.4,578.2c91.6-46.8,185.7-88.6,281.8-125.2-90.4,39.5-177.4,91-255,152.1-22.3,64.3-38.5,130.7-48.3,198.1,4-75.2,11.1-150.3,21.5-225h0Z"/>
  <path class="st4" d="M2162.5,581.1c-91.6-46.8-185.7-88.6-281.8-125.2,90.4,39.5,177.4,91,255,152.1,22.3,64.3,38.5,130.7,48.2,198.1-3.9-75.2-11-150.3-21.4-225h0Z"/>
  <g class="st9">
    <g class="st9">
      <g class="st9">
        <path class="st10" d="M581.4,1428.4h-152.4v-102.5h324.7c57,0,85.4-17.1,85.4-51.3s-28.5-51.3-85.4-51.3h-324.7v-102.5h341.7c113.9,0,170.9,51.3,170.9,153.8s-57,153.8-170.9,153.8h-31.8l240.6,205h-157.5l-240.6-205Z"/>
        <path class="st10" d="M1556.7,1530.9v102.5h-341.7c-113.9,0-170.9-57-170.9-170.9v-170.9c0-113.9,57-170.9,170.9-170.9h341.7v102.5h-327.7c-54.9,0-82.4,27.3-82.4,82v143.2c0,54.9,27.6,82.4,82.7,82.4h327.4Z"/>
        <path class="st10" d="M1811.7,1428.4h-152.4v-102.5h324.7c57,0,85.4-17.1,85.4-51.3s-28.5-51.3-85.4-51.3h-324.7v-102.5h341.7c113.9,0,170.9,51.3,170.9,153.8s-57,153.8-170.9,153.8h-31.8l240.6,205h-157.5l-240.6-205Z"/>
      </g>
    </g>
  </g>
  <g>
    <path class="st5" d="M1081.1,607.7c34.3-12.7,76.4,6.8,101.9,22.1l-16.9-51.7-35.4-20.7c-44.5-2.9-88.9-8.9-132.6-18.1-.5,40,26.1,89.2,41.7,114.8,8.4-23.8,22.3-39.4,41.3-46.4h0Z"/>
    <path class="st2" d="M1202.6,504.6c120.1-5.7,298.8-32.4,471-127.4-1.6-24.3-5.6-48.3-12.2-71.7-12.4-43.8-39.7-107.5-99.8-162.4-15.1-13.7-55.2-46.7-114.3-68.8-35.9-13.4-78.8-22.8-127.4-21.5-68.4,1.8-122,24.2-151.9,40.2-25.5,45.8-124.8,239-90.9,411.1,34.9,2,77.5,2.8,125.5.6h0Z"/>
    <path class="st8" d="M873.7,1022.6l.7-1.9c13.4-40.2,7.4-83.3-16.4-118.4-1.8-2.7-3.8-5.4-5.8-8h0c-15.2-19.2-35.5-33.9-58.5-42.6-32.4-12.1-67.9-11.2-99.5,2l100.3,89.2-89.3,94.4-92.7-74.6c-7,60.7,28.3,119.9,86.8,141.8,69.7,26,147.5-9.5,173.6-79.2.3-.8.6-1.7.9-2.5h0v-.2ZM832.9,1040.5c-11.4,10.9-24.7,19.4-38.9,25.6,13.5-11,26-22.2,36.7-35.4,29.6-36.6,29.2-77.9,8.4-118.9,21.5,23.3,30.3,58.5,19.9,89-5.2,15.3-14.4,28.8-26.1,39.8h0Z"/>
    <path class="st11" d="M978.9,880.3l-4.6-43.5c-2.1-20.3,2.4-40.5,12.8-56.9,10.2-16.1,23.8-26.1,40.4-29.7,23.1-5.1,45.9,3.7,57.5,9.4,1.6-2.1,3.3-4.1,5.1-6-37.8-19.3-52.6-63.6-55.4-72.9-.4-.6-1-1.4-1.6-2.4-12,2.9-41.2,11.8-68.9,34.9-45.4,37.8-67,95.1-64.1,170.2l78.7-3.1h.1Z"/>
    <path class="st8" d="M993.4,1006.2c-.2-.5-.3-1.1-.5-1.6-.2-.7-.4-1.4-.6-2.2,0-.5-.3-1-.4-1.6-.2-.8-.3-1.6-.5-2.4,0-.4-.2-.9-.3-1.3-.2-1.3-.4-2.5-.5-3.8l-1-9.3-57,3.9c-3.1.2-6.1-.3-8.9-1.3-7.2-2.7-12.6-9.1-13.7-17.1l-2.7-19.6c-.8-5.9.9-12,4.8-16.6,3.9-4.6,9.5-7.4,15.5-7.6l55.7-2.2-2.6-24.7-100.6,4c19.4,34.4,24.8,74.3,15.1,112.6l98.8-6.8v-.3c-.2-.7-.4-1.4-.6-2.1h0Z"/>
    <path class="st2" d="M1394.5,537.4c-52.9,11.8-107.2,18.8-161.8,21.2l178.4,103c18.4,10.6,41.5,6.3,54.9-10.3,47.6-59.1,170.4-185.8,336.2-169.1l-118.3-63.2c-89.7,55.8-187,95.7-289.4,118.5h0Z"/>
    <path class="st18" d="M1675.5,547.6c-12.2,4.3-24.5,9.4-36.9,15.4-71.1,34.5-116.9,85.3-142.7,121.9-21.6,30.5-60.1,41.7-94.1,29-4.4-1.6-8.6-3.7-12.8-6.1l-198.7-115.8,28.3,86.8-24.1-19c-.6-.5-64.8-50.4-107-34.8-17.1,6.3-28.7,23.5-34.6,51.1,3,9.6,17.9,51.2,53,63.9,41.3-26.8,91.3-2.5,109.7,8.3,25.6-27.8,60.3-36.3,101-24.6,23.6,6.8,42.9,18.6,51.6,24.6,29.2-15.5,56.2-23.6,80.2-24.1,46.6-1,86.3,36.4,88.5,83.3l2.3,50.4,18.5-.7c22.1-16.2,106.9-84,125.2-184.2,7.9-43.5,5.5-85.6-7.3-125.5h0ZM1183,708c-.8-.4-1.5-.9-2.3-1.3-20.1-11-42.4-14.5-65.3-14.7,12.8-7.4,28.6-8.8,43.1-5.1-3.4-2.7-6.8-5.2-10.3-7.7-19.7-13.9-41.3-19.6-59.8-.9,7.8-23.8,34.4-28.1,55-18.3,16.1,7.3,29.6,19.9,40.3,33.3,7.7,9.8,14.3,20.4,19.3,31.8-6.8-5.5-13.4-11.3-19.9-17.2h0ZM1218.3,695.2c1.4-9.5,5.8-18.4,12.3-25.4-1.4,9.5-5.7,18.4-12.3,25.4ZM1231.2,698c.6-7.5,4.2-14.6,9.8-19.5-.6,7.5-4.2,14.6-9.8,19.5ZM1556.8,723c12.1,0,26.4,2,33.7-9.3,2.2-3.3,3.9-7.5,5.8-12.1,7.4,26.1-21.3,36.8-39.5,21.4h0Z"/>
    <path class="st11" d="M1837.5,561.2c40.6,1,49.9-8.8,52-13,1.9-3.7,1.2-8.4-.3-12.7-1.1,0-2.2,0-3.4-.3-38.1-8.3-105.3-16.5-180.9,3.2,27.8,9.1,75.1,21.3,132.5,22.6h0v.2Z"/>
    <path class="st11" d="M1474,657.7c-14.7,18.2-38.8,24.6-60,16.6-2.8-1-5.5-2.3-8.1-3.8l-192.7-111.3c-14.2.3-28.4.3-42.6,0l227.7,132.7c27.7,16.2,63.9,8.4,82.3-17.6,38.9-55,90.7-99.2,149.8-127.9,86.9-42.1,171.1-42.3,226.9-34.8l-28-15c-175.1-34.7-306.2,100.1-355.3,161.1h0Z"/>
    <path class="st11" d="M1135.4,538.6l.9.5c85.5,5.2,171.5-1.5,254.2-19.9,100.4-22.4,195.9-61.5,283.9-116.2,0-4.8,0-9.6-.2-14.4-172.7,94-351.2,120.7-471.4,126.3-106.1,5-186.4-5.1-214.6-9.3.5,4.3,1,8.7,1.6,13,47.8,10.7,96.5,17.5,145.4,20.5l.3-.5h-.1Z"/>
    <path class="st1" d="M1606.7,922.8c.3-.8.4-1.6.4-2.5,0-1.8-.8-3.6-2.1-4.9-1.4-1.3-3.1-2-5-1.9l-58.1,2.3.7,15.4,58.2-4c2.7-.2,5-1.9,6-4.4h0Z"/>
    <path class="st18" d="M1545.2,989l2.3,50.1c.7,15.9-4.1,31.6-13.5,44.2-17.3,23.1-39,36.6-64.5,40.3-21.7,3.1-42.8-1.5-60-8-16.9-6.3-30-14.3-36.4-18.7-37,17.1-77.6,16.5-112.1-6.7-7.9,9.1-11.7,17.5-10.9,24.3.8,7,6.3,10.9,7,11.4,5.3,3.1,157.4,91.2,255.4,19,80.2-59.1,57.5-131.4,45.8-156.9l-13.1.9h0Z"/>
    <path class="st8" d="M1791.2,799.8l183.5,54.5c-16.5-46.2-52.5-83-99-100.4-12.1-4.5-24.7-7.7-37.5-9.3-77.4-9.9-150.5,34.3-177.8,107.5-32.3,86.4,11.8,183,98.2,215.3,73.6,27.5,154.8.7,197.6-63.7l-209.8-66.5,44.8-137.4h0ZM1701,977.7c-60.9-59.8-21.6-143.7,37.4-187.7-40,45.2-79.6,110.7-44.1,169.5,6.1,10.6,13.8,20.4,22.2,29.1,1.7,1.8,3.4,3.6,5.1,5.5-7.3-4.9-14.3-10.3-20.6-16.5h0Z"/>
    <path class="st8" d="M1540,876.6l1.1,24.8,58.2-2.3c5.8-.2,11.4,1.9,15.6,5.9s6.6,9.4,6.6,15.2-.4,5.2-1.3,7.7c-2.9,7.8-10.2,13.2-18.5,13.8l-58.5,4,1.1,24.8,94.8-6.6c-8.7-29-10.4-60.2-4-91.1l-95.1,3.8h0Z"/>
    <path class="st18" d="M1368.9,1078.3c-1.9-17.8-3.3-35.5-4.5-53.3-2.7-49.5-5.4-99-2.7-148.6.5-9.9,1.3-19.9,2.6-29.9h.5c1.6,6.5,3,13.1,4.3,19.7l.3-.8-.3.8c6.5,32.4,9.8,65.3,12.6,98.2,3.2,39.5,6,79,6.2,118.6v1.4c9,5.5,24.7,13.9,43,18.4,36.5,9,66.2-1.3,88.1-30.7,6.9-9.2,10.4-20.6,9.8-32.2l-7.9-171.9,9.3-.4-9.3.4-2.7-59.6c-1.7-36.9-32.9-66.3-69.5-65.6-22.4.5-48.2,8.7-76.7,24.6l-5.3,3-4.8-3.7c-.2-.2-22.5-17.1-50.9-25.1-36.1-10.3-65.1-1.9-86.3,24.8l-5.4,6.9-7.2-5c-.6-.4-58.7-40.2-99.2-10.3-6.4,4.7-12.2,11.1-17.2,18.9l-5,7.8-7.8-5c-2.1-1.3-52.7-32.8-80,10.3-8.2,12.9-11.8,28.9-10.1,45l4.7,44.7h0l11.7,111.8c.8,7.3,3.2,14.5,7,20.8,6.8,11.3,17.9,19.4,30.5,22.1,3.3.7,6.7,1.1,9.9,1,13.3-.2,25.9-7.1,37.8-20.5l-10.6-128.9,8.6-.7c-4.4.4-8.6.7-8.6.7-2.8-10.2-3.2-20.6-2.9-31.1.5-11,1.9-21.5,6.5-31.9h1c6.3,9.4,9.4,19.6,11.7,30.3,2,10.3,3.4,20.7,2.2,31.2h0l3.4,41.2h0l3.5,42.9h0l3.4,41.2h0l.5,5.8c9.6,20.2,26.4,40.6,48.4,46.4,21.7,5.5,42.6-4.3,60.1-17.2-3.3-16.4-6-32.9-8.5-49.5-4.1-27.4-7.3-54.9-10-82.4-2.8-27.8-4.9-55.7-.7-83.6l1.4-.2c7.6,17.4,12.2,35.4,16.1,53.7,6.8,36.3,12,72.8,16.3,109.5,2,17.6,3.7,35.3,4.7,53.1,32.3,44.1,79.6,57.5,128.1,33.2h0v-.3ZM1509.2,1056.5c-26,30.8-75,30.9-107.4,10.4,36.6,11.7,74.9,12.8,107.4-10.4ZM1085.3,1008.1c-11.1,21-40.5,18.7-54.2,1.7,19.4,8.5,36.1,11.4,54.2-1.7ZM1206.8,1036.2c-14.8,22-47.8,19.6-64.9,1.6,22.5,9.4,43.6,12.4,64.9-1.6ZM1267,1052.4c28.9,13.3,58.4,18.6,85.4-1.9-20.3,28.5-61.9,23.8-85.4,1.9Z"/>
    <path class="st17" d="M1200.9,1076.9c-38.6,14.6-73.6-4.1-95.1-36.8-1.4-2.2-2.8-4.3-4-6.4-7.7,7.3-15.9,12.7-24.5,16,25.5,19.4,84.2,54.8,160.6,41,2.2-3.9,5.1-7.8,8.4-11.8-6-5.3-11.5-11.1-16.5-17.4-8.8,6.2-18.3,11.6-28.9,15.5h0Z"/>
    <path class="st1" d="M923.3,942.6c-1.3,1.5-1.8,3.4-1.5,5.3l2.7,19.7c.5,3.6,3.7,6.2,7.3,5.9l56.5-3.9-3.3-31.7-56.6,2.2c-2,0-3.7.9-5,2.5h-.1Z"/>
    <path class="st15" d="M1769.9,925.1l33.3-102.4,198.2,58.8-3.9-15.8c-14.8-59.5-57.9-107.9-115.3-129.3-13.5-5-27.5-8.5-41.6-10.3-40.9-5.2-83,3.6-118.6,24.8-36.2,21.5-64.2,55.1-79,94.6-1.1,2.8-2,5.6-2.9,8.4l-51.1,2c35.5-30.4,96.4-93.6,112.1-179.6,7.6-41.6,6.3-82.1-3.8-120.8,28.7,9.6,78.4,22.6,139.8,24.1,38.2.9,60.8-6.7,69.1-23.2,7.3-14.5,0-30.5-4.8-38.5-1-3.2-3.2-5.9-6.4-7.6l-202.1-107.9c.3-34.7-4.2-69.1-13.6-102.2-13-46.1-41.8-113.2-105.1-171-25.5-23.2-119.1-98.8-254.8-95.2-95.8,2.6-164.4,43.5-183.1,55.9-108.6,72.3-139.8,188-153.1,237.5-17.4,64.7-21.1,132-11,199.9l.9,6.3,6.2,1.4h.3c-2.1,44.8,25.7,98,43,126.5-15.7,4.4-43,14.6-69.5,36.5-35.2,29-75.2,84.5-71.5,185.9l-13.4.5c-.5-.7-1-1.3-1.5-2-17.3-21.9-40.3-38.6-66.6-48.4-41.6-15.6-87.9-12.3-127.1,8.9l-11.6,6.3,106.3,94.5-64.3,68-103.1-83-3.3,14.4c-17.4,74.8,23.8,151.5,95.8,178.4,78.4,29.3,165.8-9.9,196.4-87.3l114.3-7.9c7.7,10.6,18.3,18.7,30.4,23.2,2.9,1.1,5.8,1.9,8.8,2.6,3.4.8,6.8,1.2,10.2,1.3,8.4,7.8,34.7,30.3,74.3,45,28.4,10.6,63.8,17.3,104.3,11.8,0,2.3,0,4.5.2,6.8,2.1,15.8,14.2,23.7,15.7,24.6,1.3.8,24.9,14.8,59.9,27.9,10.9,4.1,23,8.1,35.8,11.5,72.5,19.6,134.9,12.2,180.4-21.3,57.9-42.6,67.3-92.3,65-126.5-1.3-19-6.2-35.2-10.7-46.7l67.9-4.7c19.1,45.8,56.4,84,106.4,102.7,41.6,15.5,87.4,15.7,129,.4,41.1-15.1,75.7-44.3,97.4-82.1l5.7-10-214.2-67.9h0v.2ZM1682.8,673.1c-18.3,100.2-103.1,168-125.2,184.2l-18.5.7-2.3-50.4c-2.2-46.9-41.9-84.2-88.5-83.3-24,.5-51,8.6-80.2,24.1-8.7-5.9-28-17.8-51.6-24.6-40.7-11.7-75.4-3.2-101,24.6-18.4-10.8-68.3-35.1-109.7-8.3-35.1-12.8-50-54.4-53-63.9,5.9-27.6,17.5-44.8,34.6-51.1,42.2-15.6,106.4,34.3,107,34.8l24.1,19-28.3-86.8,198.7,115.8c4.2,2.4,8.4,4.4,12.8,6.1,34,12.7,72.5,1.5,94.1-29,25.9-36.6,71.6-87.4,142.7-121.9,12.4-6,24.7-11.1,36.9-15.4h0c12.7,39.9,15.2,82,7.3,125.5h0ZM1885.8,535.3c1.1.2,2.2.3,3.4.3,1.5,4.3,2.2,9,.3,12.7-2.1,4.2-11.4,13.9-52,13-57.4-1.3-104.7-13.5-132.5-22.6,75.5-19.8,142.8-11.5,180.9-3.2h0v-.2ZM1857.4,511.5c-55.8-7.5-139.9-7.3-226.9,34.8-59.1,28.6-110.9,72.9-149.8,127.9-18.4,26.1-54.6,33.8-82.3,17.6l-227.7-132.7c14.2.3,28.4.3,42.6,0l192.7,111.3c2.6,1.5,5.4,2.8,8.1,3.8,21.2,7.9,45.3,1.6,60-16.6,49.1-61,180.2-195.8,355.3-161.1l28,15h0ZM1802.2,482.1c-165.9-16.7-288.6,110-336.2,169.1-13.4,16.6-36.5,21-54.9,10.3l-178.4-103c54.6-2.3,108.8-9.4,161.8-21.2,102.4-22.8,199.7-62.7,289.4-118.5l118.3,63.2h0ZM1168,92.9c29.9-16,83.5-38.3,151.9-40.2,48.6-1.3,91.5,8.1,127.4,21.5,59.2,22.1,99.3,55.1,114.3,68.8,60.1,54.8,87.4,118.5,99.8,162.3,6.6,23.3,10.7,47.3,12.2,71.7-172.2,95-351,121.8-471,127.4-48,2.3-90.7,1.4-125.5-.6-33.9-172,65.4-365.3,90.9-411.1h0v.2ZM987.1,494.9c-4.8-55.2,0-109.7,14.1-162.5,13.8-51.4,42.6-158.4,145.4-226.8,1.2-.8,2.7-1.8,4.3-2.8-33.7,64.3-114.7,240.6-84.5,400.5-38.7-2.6-66.5-6.4-79.3-8.4h0ZM988.2,505.6c28.2,4.3,108.6,14.3,214.6,9.3,120.2-5.6,298.7-32.3,471.4-126.3,0,4.8.2,9.6.2,14.4-88,54.8-183.5,93.8-283.9,116.2-82.7,18.5-168.7,25.1-254.2,19.9l-.9-.5-.3.5c-48.8-3-97.5-9.8-145.4-20.5-.6-4.3-1.1-8.7-1.6-13h.1ZM998.1,539.3c43.7,9.2,88.1,15.2,132.6,18.1l35.4,20.7,16.9,51.7c-25.6-15.3-67.7-34.8-101.9-22.1-19,7-32.8,22.6-41.3,46.4-15.6-25.5-42.2-74.8-41.7-114.8h0ZM964.3,713.1c27.7-23.1,56.9-32,68.9-34.9.7,1,1.2,1.8,1.6,2.4,2.8,9.4,17.5,53.6,55.4,72.9-1.8,1.9-3.5,3.9-5.1,6-11.6-5.7-34.4-14.5-57.5-9.4-16.6,3.7-30.2,13.7-40.4,29.7-10.4,16.4-15,36.6-12.8,56.9l4.6,43.5-78.7,3.1c-2.8-75.2,18.7-132.4,64.1-170.2h0ZM699.3,1104.4c-58.5-21.9-93.9-81.1-86.8-141.8l92.7,74.6,89.3-94.4-100.3-89.2c31.6-13.3,67.2-14.1,99.5-2,23.1,8.6,43.3,23.3,58.5,42.6h0c2,2.6,4,5.2,5.8,8,23.8,35.1,29.8,78.2,16.4,118.4l-.7,1.9h0c-.3.9-.6,1.8-.9,2.6-26,69.7-103.9,105.2-173.6,79.2h.1ZM895.3,1015.4c9.7-38.2,4.4-78.2-15.1-112.6l100.6-4,2.6,24.7-55.7,2.2c-6,.2-11.7,3-15.5,7.6-3.9,4.6-5.6,10.7-4.8,16.6l2.7,19.6c1.1,8,6.6,14.4,13.7,17.1,2.8,1,5.8,1.5,8.9,1.3l57-3.9,1,9.3c0,1.3.3,2.6.5,3.8,0,.4.2.9.3,1.3.2.8.3,1.6.5,2.4,0,.5.3,1,.4,1.6.2.7.3,1.4.6,2.2.2.6.3,1.1.5,1.6.2.7.4,1.4.6,2.1v.3l-98.8,6.8h0ZM984.9,937.9l3.3,31.7-56.5,3.9c-3.6.2-6.8-2.4-7.3-5.9l-2.7-19.7c-.3-1.9.3-3.8,1.5-5.3s3-2.4,5-2.5l56.6-2.2h.1ZM1237.8,1090.6c-76.3,13.8-135.1-21.5-160.6-41,8.6-3.3,16.7-8.6,24.5-16,1.3,2.2,2.6,4.3,4,6.4,21.5,32.7,56.5,51.4,95.1,36.8,10.6-3.8,20.1-9.2,28.9-15.5,5,6.3,10.5,12.1,16.5,17.4-3.4,4-6.2,7.9-8.4,11.8h0ZM1240.7,1045.1c-1.1-17.7-2.7-35.4-4.7-53.1-4.3-36.7-9.5-73.2-16.3-109.5-3.8-18.3-8.4-36.3-16.1-53.7l-1.4.2c-4.2,27.9-2.2,55.8.7,83.6,2.7,27.5,5.9,55,10,82.4,2.4,16.5,5.2,33.1,8.5,49.5-17.5,12.9-38.4,22.8-60.1,17.2-21.9-5.9-38.7-26.2-48.4-46.4l-.5-5.8h0l-3.4-41.2h0l-3.5-42.9h0l-3.4-41.2h0c1.2-10.5-.2-20.9-2.2-31.2-2.2-10.7-5.4-20.9-11.7-30.4h-1c-4.6,10.5-6.1,21-6.5,32-.3,10.5,0,20.9,2.9,31.1,0,0,4.2-.3,8.6-.7l-8.6.7,10.6,128.9c-11.8,13.3-24.5,20.2-37.8,20.5-3.2,0-6.6-.3-9.9-1-12.5-2.7-23.6-10.7-30.5-22.1-3.8-6.2-6.2-13.4-7-20.8l-11.7-111.8h0l-4.7-44.7c-1.7-16.1,1.9-32.1,10.1-45,27.4-43.1,77.9-11.7,80-10.3l7.8,5,5-7.8c5.1-7.8,10.8-14.1,17.2-18.9,40.4-29.9,98.6,9.9,99.2,10.3l7.2,5,5.4-6.9c21.2-26.7,50.2-35,86.3-24.8,28.4,8.1,50.7,25,50.9,25.1l4.8,3.7,5.3-3c28.5-15.8,54.4-24.1,76.7-24.6,36.6-.8,67.8,28.7,69.5,65.6l2.7,59.6,9.3-.4-9.3.4,7.9,171.9c.5,11.6-3,23-9.8,32.2-22,29.3-51.6,39.7-88.1,30.7-18.2-4.5-33.9-12.8-43-18.4v-1.4c-.3-39.6-3-79.1-6.2-118.6-2.8-32.9-6.1-65.8-12.6-98.2l.3-.8-.3.8c-1.3-6.6-2.7-13.2-4.3-19.8h-.5c-1.3,10-2.1,20-2.6,29.9-2.7,49.5,0,99.1,2.7,148.6,1.2,17.8,2.5,35.6,4.5,53.3-48.6,24.3-95.9,10.8-128.1-33.2h0v.4ZM1541.8,915.8l58.1-2.3c1.9,0,3.7.6,5,1.9,1.4,1.3,2.1,3,2.1,4.9s0,1.7-.4,2.5c-.9,2.5-3.3,4.3-6,4.4l-58.2,4-.7-15.4h0ZM1512.5,1145c-98,72.1-250.1-15.9-255.4-19-.7-.5-6.2-4.4-7-11.4-.8-6.8,3-15.2,10.9-24.3,34.5,23.2,75.1,23.7,112.1,6.7,6.4,4.3,19.6,12.3,36.4,18.7,17.2,6.4,38.3,11,60,8,25.5-3.6,47.2-17.2,64.5-40.3,9.4-12.6,14.2-28.3,13.5-44.2l-2.3-50.1,13.1-.9c11.6,25.5,34.4,97.8-45.8,156.9h0ZM1544.4,970.4l-1.1-24.8,58.5-4c8.3-.6,15.6-6,18.5-13.8.9-2.4,1.4-5,1.3-7.7,0-5.8-2.4-11.2-6.6-15.2s-9.8-6.1-15.6-5.9l-58.2,2.3-1.1-24.8,95.1-3.8c-6.4,30.9-4.7,62.1,4,91.1l-94.8,6.6h0ZM1758.6,1067.4c-86.4-32.3-130.5-128.9-98.2-215.3,27.3-73.2,100.4-117.3,177.8-107.5,12.7,1.6,25.3,4.8,37.5,9.3,46.4,17.3,82.4,54.2,99,100.4l-183.5-54.5-44.8,137.4,209.8,66.5c-42.8,64.4-124,91.2-197.6,63.7h0Z"/>
    <path class="st15" d="M839.1,911.7c20.8,41.1,21.2,82.3-8.4,118.9-10.6,13.2-23.2,24.4-36.7,35.4,14.2-6.1,27.5-14.7,38.9-25.6,11.7-11,20.9-24.6,26.1-39.8,10.4-30.5,1.6-65.6-19.9-89h0Z"/>
    <path class="st15" d="M1694.3,959.5c-35.4-58.8,4.1-124.3,44.1-169.5-59,43.9-98.3,127.9-37.4,187.7,6.3,6.1,13.3,11.6,20.6,16.5-1.7-1.9-3.4-3.7-5.1-5.5-8.4-8.8-16.1-18.6-22.2-29.1h0Z"/>
    <path class="st15" d="M1085.3,1008.1c-18.1,13.1-34.8,10.1-54.2,1.7,13.7,17.1,43.1,19.3,54.2-1.7Z"/>
    <path class="st15" d="M1206.8,1036.2c-21.3,14-42.4,11-64.9,1.6,17.1,17.9,50.1,20.4,64.9-1.6Z"/>
    <path class="st15" d="M1352.4,1050.5c-26.9,20.6-56.5,15.2-85.4,1.9,23.5,21.8,65.1,26.5,85.4-1.9Z"/>
    <path class="st15" d="M1509.2,1056.5c-32.4,23.2-70.7,22.1-107.4,10.4,32.4,20.5,81.3,20.3,107.4-10.4Z"/>
    <path class="st15" d="M1590.6,713.7c-7.3,11.3-21.6,9.2-33.7,9.3,18.2,15.4,47,4.7,39.5-21.4-1.9,4.5-3.6,8.7-5.8,12.1h0Z"/>
    <path class="st15" d="M1143.4,660.1c-20.7-9.8-47.2-5.5-55,18.3,18.5-18.7,40-13.1,59.8.9,3.5,2.4,6.9,5,10.3,7.7-14.4-3.7-30.2-2.3-43.1,5.1,22.9.2,45.2,3.7,65.3,14.7.8.4,1.6.9,2.3,1.3,6.5,5.8,13,11.7,19.9,17.2-5-11.5-11.6-22-19.3-31.8-10.7-13.4-24.2-26-40.3-33.3h0Z"/>
    <path class="st15" d="M1218.3,695.2c6.6-7,10.9-16,12.3-25.4-6.5,7-10.9,16-12.3,25.4Z"/>
    <path class="st15" d="M1231.2,698c5.7-4.9,9.2-12,9.8-19.5-5.7,4.9-9.2,12-9.8,19.5Z"/>
    <path class="st17" d="M1597.4,704.4c1.3,5.6,2.6,11.3,1.7,17s-4.8,11.2-10.4,12.4c-7.3,1.5-13.9-4.5-21.2-5.7,11.8,1.5,24.2-6,28.4-17.2"/>
    <g>
      <path class="st17" d="M1528.2,799.7l3.7,6.6c-.4-2.8-.4-5.7,0-8.5-1.2.6-2.5,1.3-3.7,1.9Z"/>
      <path class="st17" d="M1531.9,806.2c.5,3.7,1.6,7.3,3.3,10.7.2-1.2.5-2.3.7-3.4l-4-7.2h0Z"/>
      <path class="st17" d="M1555.5,835.9c-8.7-3.6-16.1-10.6-20.3-18.9-2.1,9.9-4.2,19.9-6.2,29.8-.7,3.4-1.4,7-.3,10.3,1.3,3.8,4.9,6.5,8.7,7.9,11.9,4.4,25.2-1.9,35-10,8.9-7.4,16.7-16.6,26.8-22.3-13.5,6.7-29.7,8.8-43.6,3.1h0Z"/>
      <path class="st17" d="M1599.1,832.7c1-.5,2-1,2.9-1.5-1,.5-2,1-2.9,1.5Z"/>
    </g>
    <path class="st17" d="M1131.9,663.4c-14.9-5.5-33.2,0-42.7,12.7,12.6-1.6,25.7.7,37,6.5-3.9,2.1-7.1,5.5-8.9,9.5,16.7-4.4,34.7-3.7,50.9,2-10.5-11.6-23.3-21.1-37.5-27.8"/>
    <path class="st17" d="M1084,616.4c-21.9,10.9-35.9,36-33.5,60.4,8.1-19.3,27.3-32.6,47.7-37,20.5-4.3,42-.6,61.5,6.9,19.5,7.6,37.3,18.8,55,30-10.1-19-30.6-29.7-49.9-39.3-15.7-7.8-31.6-15.7-48.5-20.3-12-3.3-26.1-4.5-35.7,3.4"/>
    <g>
      <path class="st17" d="M1494.9,1113.5c-7.8,2.5-15.7,4.7-23.7,6.7,8.3-.6,16.3-2.6,23.7-6.7Z"/>
      <path class="st17" d="M1448,1151.8c-43.9,5.7-88.6-1.5-131.6-12.3,52-3.2,104.5-6.6,154.8-19.3-14.1,1-29-2.3-42.5-7.1-21.5-7.6-42.1-18.7-64.7-21.3-15.7-1.8-31.6.5-47.5.4-19.5,0-39-3.8-57.1-10.9l-7.2.8c-5.6,13.4-11.2,28.8-4.9,41.9,4.3,9.1,13.4,14.8,22.2,19.7,48.7,27.1,105,43.6,160.3,37,55.4-6.7,109.2-39.3,132.5-89.9-26.8,35.3-70.3,55.2-114.3,60.9h0Z"/>
    </g>
    <path class="st17" d="M1538.4,1024c5.3-14.7,16.9-27,31.3-33-.9-4.3-4.8-7.4-9-8.6s-8.7-.8-13-.3c-3,.4-6.3,1-8.4,3.2-3.3,3.5-2.2,9.1-.8,13.7,1.4,4.6,2.7,10-.2,13.8"/>
    <g>
      <path class="st17" d="M1092.7,917.1v-13.6c-.2,4.6-.2,9.1,0,13.6Z"/>
      <path class="st17" d="M1527.3,971.6c11.8,30.8-5.4,68.5-34.9,83.1-29.6,14.6-67.4,6.9-91.8-15.3s-35.3-56.9-32.4-89.7c-3.3,15.8,0,32,0,48.1.2,16.1-3.5,33.9-16.4,43.4-8.5,6.2-19.5,7.8-30,7.2-32.9-1.9-62.3-23.7-80.1-51.4-17.8-27.7-25.4-60.8-29.2-93.5,0,25.6,0,51.1.2,76.7,0,10.7-.2,22.2-6.4,30.9-6.3,8.7-17.6,12.7-28.3,12.1s-20.8-5.3-29.8-11.1c-32-20.5-52.9-57-55.4-94.9,0,15-1.3,30.1-6.3,44.1-6.6,18.3-20.9,35.1-40,39.1-19.1,4.1-41.6-8.6-43.7-27.9l-14.9,7.6c2.7.9,5.4,1.9,8.1,2.8,4.5,18.4,12.9,36.5,27.3,48.8,14.4,12.3,35.6,17.8,52.9,10.2,8.2-3.6,15.9-10,24.8-9,10.9,1.2,17.1,12.6,24.3,20.8,12.1,13.8,31.4,20.9,49.5,18.1,19-2.9,36.6-15.8,55.6-13,22.8,3.3,37,27.3,58.7,35.1,25.3,9.2,53.2-5.7,80-3,27.1,2.8,49.5,23.1,76.4,27.6,33.7,5.7,68.2-16.5,83-47.3,14.7-30.8,12-67.9-.9-99.5h-.3Z"/>
    </g>
    <path class="st17" d="M1685.7,683.6c6.2-37.1,5.1-74.9,4.1-112.4-.2-8.5-.9-18.1-7.4-23.8-8-7.1-20.5-4.2-30.5-.4-58.3,22.4-106.8,64.7-148.5,111.1-14.4,16-28.6,32.9-47.2,43.6-8.5,4.9-18.6,8.3-28.8,9.3-3.5-1.5-7.4-2.5-11-3.2-44.1-8.6-82.6-34.5-118.7-61.3-36-26.8-71.7-55.5-113.8-71.2-6.1,13.5-1.1,31.1,11.2,39.4l1.1-2.2c1.8,7.5,2.8,15.2,4.1,22.8,2,12,5.1,24.5,13,33.8-.2-7.4-.4-15,1.5-22.2s6.1-14.1,12.7-17.5c.7-.4,1.5-.7,2.3-1,49,26.3,96.2,56,141,88.9,8.4,6.2,16.8,12.5,26.5,16.4,9.6,3.9,20.8,5.2,30.4,1,3.7-1.6,7.2-4.3,8.9-7.8,3.3,1.2,6.8,1.9,10.5,1.9,13.2.2,24.4-8.9,34.7-17.1,28.1-22.2,59.4-40.4,92.4-54.2,14.6-6.1,31-11.2,45.9-6,14.6,5.2,24.1,19.2,29.6,33.7,12.4,32.2,8.9,70.2-9.2,99.6,25.4-27.7,39.3-64.3,45.5-101.4h0l-.3.2Z"/>
    <path class="st1" d="M879.4,927.6c3,38-12.9,76.6-40.5,102.8-27.7,26.2-66.3,39.9-104.3,38.7-27.5-.9-55.3-9.6-76.2-27.5s-34.1-45.6-31.3-73c-8-3.7-14.9-9.6-19.8-16.9h4.9l-5.2-8.1c-14.7,57.9,11.4,123.7,61.8,155.8,50.3,32.1,121.1,28,167.3-9.8,46.3-37.7,64.5-106.2,43.2-161.9h0Z"/>
    <path class="st1" d="M1535.9,939.1c34.1-2.3,68.2-4.7,102.2-7,1.9,14.9,3.9,29.7,5.8,44.6-35.4-.6-70.9.8-106.2,4.1-1.6-16-1.7-32.2,0-48.3"/>
    <path class="st1" d="M1923.3,995.2c-13.8,2.2-26.8,7.4-40.2,11.2-50.8,14.2-107.6,5.8-152.1-22.5s-76.2-76.1-85-128.2c-5.9,34-6.7,68.8-2.4,103l-2.1-40.9c2.3,49,26.4,96.6,64.6,127.4,38.2,30.8,89.8,44.4,138.2,36.4,48.4-8,92.9-37.5,119-79-11.2-8.2-26.2-9.5-40-7.4h0Z"/>
    <path class="st7" d="M1160.3,566.9c-21.9-18.2-51.7-22.9-80.1-25.3-28.3-2.4-57.8-3.5-83.2-16.2l3.3,4.1c-1.7-.2-3.4-.4-5.1-.7-5.9,10.7-6.9,24-2.7,35.5,37.9-7.8,78.4-7.7,114.4,6.5,36,14.3,66.9,44.1,76.8,81.5,10.6-29.7.8-65.5-23.4-85.6h0v.2Z"/>
    <g>
      <path class="st11" d="M1151,102.8c-1.7,1-3.1,2-4.3,2.8-102.8,68.4-131.6,175.4-145.4,226.8-14.2,52.8-18.9,107.3-14.1,162.5,12.8,2,40.6,5.8,79.3,8.4-30.2-159.9,50.8-336.2,84.5-400.5h0Z"/>
      <path class="st11" d="M1169.8,443.6c-45.2-42.9-60.2-110.4-53.6-172.4s31.8-120.3,56.7-177.5c-76.6,117.2-113.1,260.2-102,399.8l11.1.6c-.8,3.8-1.5,7.6-2.2,11.4,74.6,8.1,150,8,224.6-.2-48.2-12.9-98.3-27.4-134.4-61.7h-.2Z"/>
    </g>
    <path class="st11" d="M1089.8,487.9c-5.4-4.1-14.1-3.1-18.4,2.2s-3.7,13.9,1.4,18.5,13.7,4.3,18.5-.6c7.3-7.5,3.6-20-1.1-29.3"/>
    <g>
      <path class="st13" d="M1611.9,412.6c20-18.9,56.7-18.6,68.1-43.6,6.1-13.3,2.1-28.9-2.4-42.8-12.9-39.4-29.9-77.5-50.7-113.4l33.1,40.8c-17.3-33-41.3-62.4-69.9-86.2,19.4,38.9,39.1,78.5,46.8,121.2s2.1,90-25.1,124h0Z"/>
      <path class="st13" d="M1682.2,411.6l-15.1,11.4c-26.7,7.9-51.9,21-73.7,38.4,66-16.3,138.3-5.9,196.9,28.5,26.4,15.5,55,36.5,84.4,28-64.2-35.4-128.4-70.9-192.5-106.3h0Z"/>
    </g>
    <path class="st14" d="M1016.5,769.1c-23.6,16.8-36.6,47.3-32.3,75.9,6-23.3,24.8-42.9,47.8-49.8,23.1-6.9,49.5-.9,67.3,15.3,7.5-24.4,34.6-39.1,60.1-38s48.9,15,67.5,32.5c15.7-25,45.3-40.7,74.8-39.7s58,18.6,72,44.6c18.2-20.9,45.3-33.8,73-34.7s55.6,10.3,75,30.1c-.3-23-11.8-45.5-30.3-59.2s-43.4-18.1-65.5-11.6c-24,7-45.3,26.1-70.2,23.6-13.4-1.4-25.2-8.9-37.7-13.9-23.6-9.4-50.8-9.5-74.4-.2-11.3,4.4-22.1,11-34.2,12.3-17.8,1.9-34.6-7.8-52.3-10.4-25.6-3.8-52.9,9.1-66.4,31.2-19.3-15.7-48-18.9-70.3-7.8-22.3,11.1-37.1,35.8-36.3,60.7"/>
    <g>
      <path class="st10" d="M1929.1,840.2c-7.9,1.8-16.6,1.9-23.5,6.2,27.4,7.1,54.9,14.3,82.4,21.4-13.1-45.2-46.8-84-89.7-103.3l-9.8-5.2c20.4,13.8,38.2,31.3,52.3,51.6,3,4.3,5.9,9.1,5.5,14.4-.7,8.1-9.3,13.2-17.2,15h0Z"/>
      <path class="st10" d="M1888.5,759.3c-12.5-8.5-25.9-15.6-40-21.1l40,21.1Z"/>
      <path class="st10" d="M706.4,835.7l5.1,4.6c-8.6,1-16.9,4.9-23.1,10.9,6.7,11.7,15.9,25,29.4,25.2,5.3,0,10.3-2,15.3-3.7,42.5-14.9,91.6-9.6,129.9,14.1-40.8-39.7-100.4-59.1-156.7-51.1h.1Z"/>
    </g>
    <g>
      <path class="st12" d="M1769.9,925.1l33.3-102.4,198.2,58.8-3.9-15.8c-14.8-59.5-57.9-107.9-115.3-129.3-13.5-5-27.5-8.5-41.6-10.3-40.9-5.2-83,3.6-118.6,24.8-36.2,21.5-64.2,55.1-79,94.6-1.1,2.8-2,5.6-2.9,8.4l-51.1,2c35.5-30.4,96.4-93.6,112.1-179.6,7.6-41.6,6.3-82.1-3.8-120.8,28.7,9.6,78.4,22.6,139.8,24.1,38.2.9,60.8-6.7,69.1-23.2,7.3-14.5,0-30.5-4.8-38.5-1-3.2-3.2-5.9-6.4-7.6l-202.1-107.9c.3-34.7-4.2-69.1-13.6-102.2-13-46.1-41.8-113.2-105.1-171-25.5-23.2-119.1-98.8-254.8-95.2-95.8,2.6-164.4,43.5-183.1,55.9-108.6,72.3-139.8,188-153.1,237.5-17.4,64.7-21.1,132-11,199.9l.9,6.3,6.2,1.4h.3c-2.1,44.8,25.7,98,43,126.5-15.7,4.4-43,14.6-69.5,36.5-35.2,29-75.2,84.5-71.5,185.9l-13.4.5c-.5-.7-1-1.3-1.5-2-17.3-21.9-40.3-38.6-66.6-48.4-41.6-15.6-87.9-12.3-127.1,8.9l-11.6,6.3,106.3,94.5-64.3,68-103.1-83-3.3,14.4c-17.4,74.8,23.8,151.5,95.8,178.4,78.4,29.3,165.8-9.9,196.4-87.3l114.3-7.9c7.7,10.6,18.3,18.7,30.4,23.2,2.9,1.1,5.8,1.9,8.8,2.6,3.4.8,6.8,1.2,10.2,1.3,8.4,7.8,34.7,30.3,74.3,45,28.4,10.6,63.8,17.3,104.3,11.8,0,2.3,0,4.5.2,6.8,2.1,15.8,14.2,23.7,15.7,24.6,1.3.8,24.9,14.8,59.9,27.9,10.9,4.1,23,8.1,35.8,11.5,72.5,19.6,134.9,12.2,180.4-21.3,57.9-42.6,67.3-92.3,65-126.5-1.3-19-6.2-35.2-10.7-46.7l67.9-4.7c19.1,45.8,56.4,84,106.4,102.7,41.6,15.5,87.4,15.7,129,.4,41.1-15.1,75.7-44.3,97.4-82.1l5.7-10-214.2-67.9h0v.2ZM1557.6,857.3l-18.5.7-2.3-50.4c-2.2-46.9-41.9-84.2-88.5-83.3-24,.5-51,8.6-80.2,24.1-8.7-5.9-28-17.8-51.6-24.6-40.7-11.7-75.4-3.2-101,24.6-18.4-10.8-68.3-35.1-109.7-8.3-35.1-12.8-50-54.4-53-63.9,5.9-27.6,17.5-44.8,34.6-51.1,42.2-15.6,106.4,34.3,107,34.8l24.1,19-28.3-86.8,198.7,115.8c4.2,2.4,8.4,4.4,12.8,6.1,34,12.7,72.5,1.5,94.1-29,25.9-36.6,71.6-87.4,142.7-121.9,12.4-6,24.7-11.1,36.9-15.4h0c12.7,39.9,15.2,82,7.3,125.5-18.3,100.2-103.1,168-125.2,184.2h0ZM1889.5,548.2c-2.1,4.2-11.4,13.9-52,13-57.4-1.3-104.7-13.5-132.5-22.6,75.5-19.8,142.8-11.5,180.9-3.2,1.1.2,2.2.3,3.4.3,1.5,4.3,2.2,9,.3,12.7h0v-.2ZM1630.5,546.3c-59.1,28.6-110.9,72.9-149.8,127.9-18.4,26.1-54.6,33.8-82.3,17.6l-227.7-132.7c14.2.3,28.4.3,42.6,0l192.7,111.3c2.6,1.5,5.4,2.8,8.1,3.8,21.2,7.9,45.3,1.6,60-16.6,49.1-61,180.2-195.8,355.3-161.1l28,15c-55.8-7.5-139.9-7.3-226.9,34.8h0ZM1135.4,538.6l-.3.5c-48.8-3-97.5-9.8-145.4-20.5-.6-4.3-1.1-8.7-1.6-13,28.2,4.3,108.6,14.3,214.6,9.3,120.2-5.6,298.7-32.3,471.4-126.3,0,4.8.2,9.6.2,14.4-88,54.8-183.5,93.8-283.9,116.2-82.7,18.5-168.7,25.1-254.2,19.9l-.9-.5h.1ZM1802.2,482.1c-165.9-16.7-288.6,110-336.2,169.1-13.4,16.6-36.5,21-54.9,10.3l-178.4-103c54.6-2.3,108.8-9.4,161.8-21.2,102.4-22.8,199.7-62.7,289.4-118.5l118.3,63.2h0ZM1319.9,52.8c48.6-1.3,91.5,8.1,127.4,21.5,59.2,22.1,99.3,55.1,114.3,68.8,60.1,54.8,87.4,118.5,99.8,162.3,6.6,23.3,10.7,47.3,12.2,71.7-172.2,95-351,121.8-471,127.4-48,2.3-90.7,1.4-125.5-.6-33.9-172,65.4-365.3,90.9-411.1,29.9-16,83.5-38.3,151.9-40.2h0v.2ZM1146.6,105.6c1.2-.8,2.7-1.8,4.3-2.8-33.7,64.3-114.7,240.6-84.5,400.5-38.7-2.6-66.5-6.4-79.3-8.4-4.8-55.2,0-109.7,14.1-162.5,13.8-51.4,42.6-158.4,145.4-226.8h0ZM998.1,539.3c43.7,9.2,88.1,15.2,132.6,18.1l35.4,20.7,16.9,51.7c-25.6-15.3-67.7-34.8-101.9-22.1-19,7-32.8,22.6-41.3,46.4-15.6-25.5-42.2-74.8-41.7-114.8h0ZM964.3,713.1c27.7-23.1,56.9-32,68.9-34.9.7,1,1.2,1.8,1.6,2.4,2.8,9.4,17.5,53.6,55.4,72.9-1.8,1.9-3.5,3.9-5.1,6-11.6-5.7-34.4-14.5-57.5-9.4-16.6,3.7-30.2,13.7-40.4,29.7-10.4,16.4-15,36.6-12.8,56.9l4.6,43.5-78.7,3.1c-2.8-75.2,18.7-132.4,64.1-170.2h0ZM988.2,969.6l-56.5,3.9c-3.6.2-6.8-2.4-7.3-5.9l-2.7-19.7c-.3-1.9.3-3.8,1.5-5.3s3-2.4,5-2.5l56.6-2.2,3.3,31.7h.1ZM699.3,1104.4c-58.5-21.9-93.9-81.1-86.8-141.8l92.7,74.6,89.3-94.4-100.3-89.2c31.6-13.3,67.2-14.1,99.5-2,23.1,8.6,43.3,23.3,58.5,42.6h0c2,2.6,4,5.2,5.8,8,23.8,35.1,29.8,78.2,16.4,118.4l-.7,1.9h0c-.3.9-.6,1.8-.9,2.6-26,69.7-103.9,105.2-173.6,79.2h.1ZM895.3,1015.4c9.7-38.2,4.4-78.2-15.1-112.6l100.6-4,2.6,24.7-55.7,2.2c-6,.2-11.7,3-15.5,7.6-3.9,4.6-5.6,10.7-4.8,16.6l2.7,19.6c1.1,8,6.6,14.4,13.7,17.1,2.8,1,5.8,1.5,8.9,1.3l57-3.9,1,9.3c0,1.3.3,2.6.5,3.8,0,.4.2.9.3,1.3.2.8.3,1.6.5,2.4,0,.5.3,1,.4,1.6.2.7.3,1.4.6,2.2.2.6.3,1.1.5,1.6.2.7.4,1.4.6,2.1v.3l-98.8,6.8h0ZM1046.6,1034.1c-12.5-2.7-23.6-10.7-30.5-22.1-3.8-6.2-6.2-13.4-7-20.8l-11.7-111.8h0l-4.7-44.7c-1.7-16.1,1.9-32.1,10.1-45,27.4-43.1,77.9-11.7,80-10.3l7.8,5,5-7.8c5.1-7.8,10.8-14.1,17.2-18.9,40.4-29.9,98.6,9.9,99.2,10.3l7.2,5,5.4-6.9c21.2-26.7,50.2-35,86.3-24.8,28.4,8.1,50.7,25,50.9,25.1l4.8,3.7,5.3-3c28.5-15.8,54.4-24.1,76.7-24.6,36.6-.8,67.8,28.7,69.5,65.6l2.7,59.6,9.3-.4-9.3.4,7.9,171.9c.5,11.6-3,23-9.8,32.2-22,29.3-51.6,39.7-88.1,30.7-18.2-4.5-33.9-12.8-43-18.4v-1.4c-.3-39.6-3-79.1-6.2-118.6-2.8-32.9-6.1-65.8-12.6-98.2l.3-.8-.3.8c-1.3-6.6-2.7-13.2-4.3-19.8h-.5c-1.3,10-2.1,20-2.6,29.9-2.7,49.5,0,99.1,2.7,148.6,1.2,17.8,2.5,35.6,4.5,53.3-48.6,24.3-95.9,10.8-128.1-33.2-1.1-17.7-2.7-35.4-4.7-53.1-4.3-36.7-9.5-73.2-16.3-109.5-3.8-18.3-8.4-36.3-16.1-53.7l-1.4.2c-4.2,27.9-2.2,55.8.7,83.6,2.7,27.5,5.9,55,10,82.4,2.4,16.5,5.2,33.1,8.5,49.5-17.5,12.9-38.4,22.8-60.1,17.2-21.9-5.9-38.7-26.2-48.4-46.4l-.5-5.8h0l-3.4-41.2h0l-3.5-42.9h0l-3.4-41.2h0c1.2-10.5-.2-20.9-2.2-31.2-2.2-10.7-5.4-20.9-11.7-30.4h-1c-4.6,10.5-6.1,21-6.5,32-.3,10.5,0,20.9,2.9,31.1,0,0,4.2-.3,8.6-.7l-8.6.7,10.6,128.9c-11.8,13.3-24.5,20.2-37.8,20.5-3.2,0-6.6-.3-9.9-1h0v.4ZM1541.8,915.8l58.1-2.3c1.9,0,3.7.6,5,1.9,1.4,1.3,2.1,3,2.1,4.9s0,1.7-.4,2.5c-.9,2.5-3.3,4.3-6,4.4l-58.2,4-.7-15.4h0ZM1077.2,1049.7c8.6-3.3,16.7-8.6,24.5-16,1.3,2.2,2.6,4.3,4,6.4,21.5,32.7,56.5,51.4,95.1,36.8,10.6-3.8,20.1-9.2,28.9-15.5,5,6.3,10.5,12.1,16.5,17.4-3.4,4-6.2,7.9-8.4,11.8-76.3,13.8-135.1-21.5-160.6-41h0ZM1512.5,1145c-98,72.1-250.1-15.9-255.4-19-.7-.5-6.2-4.4-7-11.4-.8-6.8,3-15.2,10.9-24.3,34.5,23.2,75.1,23.7,112.1,6.7,6.4,4.3,19.6,12.3,36.4,18.7,17.2,6.4,38.3,11,60,8,25.5-3.6,47.2-17.2,64.5-40.3,9.4-12.6,14.2-28.3,13.5-44.2l-2.3-50.1,13.1-.9c11.6,25.5,34.4,97.8-45.8,156.9h0ZM1544.4,970.4l-1.1-24.8,58.5-4c8.3-.6,15.6-6,18.5-13.8.9-2.4,1.4-5,1.3-7.7,0-5.8-2.4-11.2-6.6-15.2s-9.8-6.1-15.6-5.9l-58.2,2.3-1.1-24.8,95.1-3.8c-6.4,30.9-4.7,62.1,4,91.1l-94.8,6.6h0ZM1758.6,1067.4c-86.4-32.3-130.5-128.9-98.2-215.3,27.3-73.2,100.4-117.3,177.8-107.5,12.7,1.6,25.3,4.8,37.5,9.3,46.4,17.3,82.4,54.2,99,100.4l-183.5-54.5-44.8,137.4,209.8,66.5c-42.8,64.4-124,91.2-197.6,63.7h0Z"/>
      <path class="st12" d="M839.1,911.7c20.8,41.1,21.2,82.3-8.4,118.9-10.6,13.2-23.2,24.4-36.7,35.4,14.2-6.1,27.5-14.7,38.9-25.6,11.7-11,20.9-24.6,26.1-39.8,10.4-30.5,1.6-65.6-19.9-89h0Z"/>
      <path class="st12" d="M1694.3,959.5c-35.4-58.8,4.1-124.3,44.1-169.5-59,43.9-98.3,127.9-37.4,187.7,6.3,6.1,13.3,11.6,20.6,16.5-1.7-1.9-3.4-3.7-5.1-5.5-8.4-8.8-16.1-18.6-22.2-29.1h0Z"/>
      <path class="st12" d="M1085.3,1008.1c-18.1,13.1-34.8,10.1-54.2,1.7,13.7,17.1,43.1,19.3,54.2-1.7Z"/>
      <path class="st12" d="M1206.8,1036.2c-21.3,14-42.4,11-64.9,1.6,17.1,17.9,50.1,20.4,64.9-1.6Z"/>
      <path class="st12" d="M1352.4,1050.5c-26.9,20.6-56.5,15.2-85.4,1.9,23.5,21.8,65.1,26.5,85.4-1.9Z"/>
      <path class="st12" d="M1509.2,1056.5c-32.4,23.2-70.7,22.1-107.4,10.4,32.4,20.5,81.3,20.3,107.4-10.4Z"/>
      <path class="st12" d="M1590.6,713.7c-7.3,11.3-21.6,9.2-33.7,9.3,18.2,15.4,47,4.7,39.5-21.4-1.9,4.5-3.6,8.7-5.8,12.1h0Z"/>
      <path class="st12" d="M1143.4,660.1c-20.7-9.8-47.2-5.5-55,18.3,18.5-18.7,40-13.1,59.8.9,3.5,2.4,6.9,5,10.3,7.7-14.4-3.7-30.2-2.3-43.1,5.1,22.9.2,45.2,3.7,65.3,14.7.8.4,1.6.9,2.3,1.3,6.5,5.8,13,11.7,19.9,17.2-5-11.5-11.6-22-19.3-31.8-10.7-13.4-24.2-26-40.3-33.3h0Z"/>
      <path class="st12" d="M1218.3,695.2c6.6-7,10.9-16,12.3-25.4-6.5,7-10.9,16-12.3,25.4Z"/>
      <path class="st12" d="M1231.2,698c5.7-4.9,9.2-12,9.8-19.5-5.7,4.9-9.2,12-9.8,19.5Z"/>
    </g>
  </g>
</svg>