<svg xmlns:xlink="http://www.w3.org/1999/xlink" xmlns="http://www.w3.org/2000/svg" width="47" height="40" viewBox="0 0 47 40" fill="none"><g clip-path="url(#clip0_2134_346)" fill="#002235"><path d="M16 22.3317C15.6044 22.3317 15.2178 22.2144 14.8889 21.9946C14.56 21.7748 14.3036 21.4625 14.1522 21.097C14.0009 20.7316 13.9613 20.3294 14.0384 19.9415C14.1156 19.5535 14.3061 19.1972 14.5858 18.9175C14.8655 18.6377 15.2219 18.4473 15.6098 18.3701C15.9978 18.2929 16.3999 18.3325 16.7654 18.4839C17.1308 18.6353 17.4432 18.8916 17.6629 19.2205C17.8827 19.5494 18 19.9361 18 20.3317C17.9994 20.8619 17.7885 21.3703 17.4136 21.7452C17.0386 22.1202 16.5303 22.3311 16 22.3317ZM16 19.3317C15.8022 19.3317 15.6089 19.3903 15.4444 19.5002C15.28 19.6101 15.1518 19.7663 15.0761 19.949C15.0004 20.1317 14.9806 20.3328 15.0192 20.5268C15.0578 20.7207 15.153 20.8989 15.2929 21.0388C15.4327 21.1786 15.6109 21.2739 15.8049 21.3125C15.9989 21.351 16.2 21.3312 16.3827 21.2555C16.5654 21.1799 16.7216 21.0517 16.8315 20.8872C16.9414 20.7228 17 20.5294 17 20.3317C16.9997 20.0666 16.8942 19.8124 16.7067 19.6249C16.5193 19.4375 16.2651 19.332 16 19.3317Z" fill="#FF5900"></path><path d="M26.9603 31.2917C25.5238 32.7436 23.8145 33.8972 21.9306 34.6864C20.0468 35.4755 18.0256 35.8845 15.9832 35.89C13.9408 35.8954 11.9174 35.4971 10.0294 34.718C8.14142 33.9389 6.42601 32.7944 4.9818 31.3502C3.53759 29.906 2.39304 28.1906 1.61395 26.3026C0.834853 24.4146 0.436577 22.3912 0.44201 20.3488C0.447443 18.3064 0.856478 16.2852 1.6456 14.4013C2.43473 12.5175 3.58839 10.8082 5.04027 9.37171C6.47678 7.91983 8.18607 6.76617 10.0699 5.97705C11.9537 5.18792 13.9749 4.77888 16.0173 4.77345C18.0598 4.76802 20.0831 5.16629 21.9711 5.94539C23.8591 6.72448 25.5745 7.86903 27.0187 9.31324C28.4629 10.7575 29.6075 12.4729 30.3866 14.3609C31.1657 16.2488 31.564 18.2722 31.5585 20.3146C31.5531 22.357 31.1441 24.3783 30.3549 26.2621C29.5658 28.1459 28.4121 29.8552 26.9603 31.2917ZM26.2534 10.0786C23.5341 7.35928 19.8459 5.8316 16.0003 5.8316C12.1546 5.8316 8.46644 7.35928 5.74714 10.0786C3.02784 12.7979 1.50016 16.486 1.50016 20.3317C1.50016 24.1774 3.02784 27.8655 5.74714 30.5848C8.46644 33.3041 12.1546 34.8318 16.0003 34.8318C19.8459 34.8318 23.5341 33.3041 26.2534 30.5848C28.9727 27.8655 30.5004 24.1774 30.5004 20.3317C30.5004 16.486 28.9727 12.7979 26.2534 10.0786Z" fill="#FF5900"></path><path d="M16 31.3317C9.93437 31.3317 5 26.3973 5 20.3317C5 14.266 9.93437 9.33167 16 9.33167C22.0656 9.33167 27 14.266 27 20.3317C27 26.3973 22.0656 31.3317 16 31.3317ZM24.0487 26.2592C25.0134 24.9553 25.6446 23.4353 25.8875 21.8317H20.7694C20.6817 22.1118 20.5692 22.3835 20.4331 22.6435L24.0487 26.2592ZM17.5 30.2192C19.1036 29.9763 20.6236 29.345 21.9275 28.3804L18.3119 24.7648C18.0518 24.9009 17.7801 25.0134 17.5 25.101V30.2192ZM14.5 30.2192V25.101C14.2199 25.0134 13.9482 24.9009 13.6881 24.7648L10.0725 28.3804C11.3764 29.345 12.8964 29.9763 14.5 30.2192ZM7.95125 26.2592L11.5669 22.6435C11.4308 22.3835 11.3183 22.1118 11.2306 21.8317H6.1125C6.3554 23.4353 6.98664 24.9553 7.95125 26.2592ZM7.95125 14.4042C6.98664 15.7081 6.3554 17.228 6.1125 18.8317H11.2306C11.3183 18.5515 11.4308 18.2798 11.5669 18.0198L7.95125 14.4042ZM14.5 10.4442C12.8964 10.6871 11.3764 11.3183 10.0725 12.2829L13.6881 15.8985C13.9482 15.7625 14.2199 15.6499 14.5 15.5623V10.4442ZM17.5 10.4442V15.5623C17.7801 15.6499 18.0518 15.7625 18.3119 15.8985L21.9275 12.2829C20.6236 11.3183 19.1036 10.6871 17.5 10.4442ZM24.0487 14.4042L20.4331 18.0198C20.5692 18.2798 20.6817 18.5515 20.7694 18.8317H25.8875C25.6446 17.228 25.0134 15.7081 24.0487 14.4042ZM20.3869 19.8317C20.2735 19.8315 20.1636 19.7929 20.0751 19.7222C19.9865 19.6515 19.9246 19.5528 19.8994 19.4423C19.7998 19.0033 19.6263 18.5844 19.3862 18.2035C19.3259 18.1075 19.2999 17.9938 19.3125 17.8811C19.3251 17.7684 19.3755 17.6632 19.4556 17.5829L23.4125 13.6267C23.1887 13.3791 22.9526 13.143 22.705 12.9192L18.7488 16.876C18.6684 16.9561 18.5633 17.0066 18.4506 17.0192C18.3378 17.0318 18.2242 17.0058 18.1281 16.9454C17.7473 16.7054 17.3284 16.5318 16.8894 16.4323C16.7789 16.4071 16.6802 16.3452 16.6095 16.2566C16.5387 16.1681 16.5001 16.0581 16.5 15.9448V10.3442C16.3344 10.336 16.1677 10.3319 16 10.3317C15.8323 10.3315 15.6656 10.3356 15.5 10.3442V15.9448C15.4999 16.0581 15.4613 16.1681 15.3905 16.2566C15.3198 16.3452 15.2211 16.4071 15.1106 16.4323C14.6716 16.5318 14.2527 16.7054 13.8719 16.9454C13.7758 17.0058 13.6622 17.0318 13.5494 17.0192C13.4367 17.0066 13.3316 16.9561 13.2513 16.876L9.295 12.9192C9.04744 13.143 8.8113 13.3791 8.5875 13.6267L12.5444 17.5829C12.6245 17.6632 12.6749 17.7684 12.6875 17.8811C12.7001 17.9938 12.6741 18.1075 12.6138 18.2035C12.3737 18.5844 12.2002 19.0033 12.1006 19.4423C12.0754 19.5528 12.0135 19.6515 11.9249 19.7222C11.8364 19.7929 11.7265 19.8315 11.6131 19.8317H6.0125C6.00417 19.9973 6 20.164 6 20.3317C6 20.4994 6.00417 20.666 6.0125 20.8317H11.6131C11.7265 20.8318 11.8364 20.8704 11.9249 20.9411C12.0135 21.0119 12.0754 21.1105 12.1006 21.221C12.2002 21.6601 12.3737 22.079 12.6138 22.4598C12.6741 22.5558 12.7001 22.6695 12.6875 22.7822C12.6749 22.895 12.6245 23.0001 12.5444 23.0804L8.5875 27.0367C8.8113 27.2842 9.04744 27.5204 9.295 27.7442L13.2513 23.7873C13.3316 23.7072 13.4367 23.6567 13.5494 23.6441C13.6622 23.6315 13.7758 23.6575 13.8719 23.7179C14.2527 23.958 14.6716 24.1315 15.1106 24.231C15.2211 24.2562 15.3198 24.3182 15.3905 24.4067C15.4613 24.4953 15.4999 24.6052 15.5 24.7185V30.3192C15.6656 30.3275 15.8323 30.3317 16 30.3317C16.1677 30.3317 16.3344 30.3275 16.5 30.3192V24.7185C16.5001 24.6052 16.5387 24.4953 16.6095 24.4067C16.6802 24.3182 16.7789 24.2562 16.8894 24.231C17.3284 24.1315 17.7473 23.958 18.1281 23.7179C18.2241 23.6575 18.3378 23.6315 18.4506 23.6441C18.5633 23.6567 18.6684 23.7072 18.7488 23.7873L22.705 27.7442C22.9526 27.5204 23.1887 27.2842 23.4125 27.0367L19.4556 23.0804C19.3755 23.0001 19.3251 22.895 19.3125 22.7822C19.2999 22.6695 19.3259 22.5558 19.3862 22.4598C19.6263 22.079 19.7998 21.6601 19.8994 21.221C19.9246 21.1105 19.9865 21.0119 20.0751 20.9411C20.1636 20.8704 20.2735 20.8318 20.3869 20.8317H25.9875C25.9956 20.666 25.9998 20.4994 26 20.3317C26.0002 20.164 25.996 19.9973 25.9875 19.8317H20.3869Z" fill="#FF5900"></path></g><circle cx="27.5" cy="19.9999" r="19.5" fill="#FE6F00" fill-opacity="0.16"></circle><defs><clipPath id="clip0_2134_346"><rect width="32" height="32" fill="white" transform="matrix(1 0 0 -1 0 36.3317)"></rect></clipPath></defs></svg>